<svg xmlns="http://www.w3.org/2000/svg" viewBox="0 0 511.999 511.999"><path d="M481.845 101.125H230.823c-5.075-20.305-23.468-35.394-45.323-35.394h-3.253l-25.681-60.7a8.242 8.242 0 00-15.182 0l-25.681 60.7h-19.82a8.243 8.243 0 00-8.243 8.243v27.15H30.153a8.243 8.243 0 00-8.243 8.243V175.1a8.243 8.243 0 008.243 8.243h57.489v18.724a8.243 8.243 0 008.243 8.243h11.982v241.383H52.063a8.243 8.243 0 00-8.243 8.243v43.821A8.243 8.243 0 0052.063 512h114.916a8.243 8.243 0 100-16.486H60.306v-27.335h177.338v27.335h-44.288a8.243 8.243 0 100 16.486h52.531a8.243 8.243 0 008.243-8.243v-43.821a8.243 8.243 0 00-8.243-8.243h-55.803V210.309h33.893a8.243 8.243 0 008.243-8.243v-18.724h200.933v74.785h-4.945a8.243 8.243 0 100 16.486h4.945v20.994a8.243 8.243 0 008.243 8.243c8.233 0 14.932 6.698 14.932 14.931s-6.699 14.932-14.932 14.932-14.932-6.699-14.932-14.932a8.243 8.243 0 10-16.486 0c0 17.323 14.093 31.418 31.418 31.418s31.418-14.094 31.418-31.418c0-14.471-9.837-26.69-23.175-30.32v-13.848h4.945a8.243 8.243 0 100-16.486h-4.945v-74.785h32.207a8.243 8.243 0 008.243-8.243v-65.732a8.244 8.244 0 00-8.244-8.242zM38.396 166.857v-37.588l37.588 37.588H38.396zm49.244-11.658l-37.588-37.588H87.64v37.588zm61.335-125.8l15.372 36.333h-30.743l15.371-36.333zm24.622 422.293h-37.588l37.588-37.588v37.588zm-49.245-11.656v-91.661l45.831 45.83-45.831 45.831zm49.245-65.732l-45.831-45.831 45.831-45.83v91.661zm-49.245-65.731v-86.606l43.303 43.303-43.303 43.303zm49.245-60.676l-37.588-37.588h37.588v37.588zm42.137-91.719h-59.36v-24.434a8.243 8.243 0 10-16.486 0v32.677a8.243 8.243 0 008.243 8.243h67.602v21.159H104.126V82.218h35.761v22.599a8.243 8.243 0 1016.486 0V82.218h20.384l.03.002 8.713-.002c16.671 0 30.233 13.563 30.233 30.233v43.727zm16.485-.979v-37.588h37.588l-37.588 37.588zm11.658 11.658l43.303-43.303 43.302 43.303h-86.605zm60.675-49.246h91.661l-45.831 45.831-45.83-45.831zm65.731 49.246l45.831-45.831 45.831 45.831h-91.662zm103.319-11.658l-37.588-37.588h37.588v37.588z"/></svg>