<svg xmlns="http://www.w3.org/2000/svg" viewBox="0 0 512 512"><path d="M504.5 484.976h-8.532V219.93a7.5 7.5 0 00-15 0v265.046H327.629v-24.564a7.5 7.5 0 00-7.5-7.5h-16.548V348.186a7.5 7.5 0 00-7.5-7.5H215.92a7.5 7.5 0 00-7.5 7.5v104.726h-16.548a7.5 7.5 0 00-7.5 7.5v24.564H31.033v-8.531a7.5 7.5 0 00-15 0v8.531H7.5a7.5 7.5 0 000 15h497a7.5 7.5 0 000-15zm-281.08-129.29h65.161v97.226H223.42v-97.226zm89.209 129.29H199.371v-17.064h113.258v17.064z"/><path d="M183.855 420.847h-.516v-72.661a7.5 7.5 0 00-7.5-7.5H63.613a7.5 7.5 0 00-7.5 7.5v72.661h-.516a7.5 7.5 0 000 15h128.258a7.5 7.5 0 000-15zm-71.629 0H71.113v-65.161h41.113v65.161zm56.113 0h-41.113v-65.161h41.113v65.161zm288.064 0h-.516v-72.661a7.5 7.5 0 00-7.5-7.5H336.161a7.5 7.5 0 00-7.5 7.5v72.661h-.516a7.5 7.5 0 000 15h128.258a7.5 7.5 0 000-15zm-71.628 0h-41.113v-65.161h41.113v65.161zm56.113 0h-41.113v-65.161h41.113v65.161zM264.016 372.75h-16.032a7.5 7.5 0 000 15h16.032a7.5 7.5 0 000-15zm32.065-160.322H215.92a7.5 7.5 0 00-7.5 7.5v80.161a7.5 7.5 0 007.5 7.5h80.161a7.5 7.5 0 007.5-7.5v-80.161a7.5 7.5 0 00-7.5-7.5zM248.5 292.589h-25.08v-65.161h25.08v65.161zm40.081 0H263.5v-65.161h25.081v65.161zm7.5-208.419H215.92a7.5 7.5 0 00-7.5 7.5v80.161a7.5 7.5 0 007.5 7.5h80.161a7.5 7.5 0 007.5-7.5V91.67a7.5 7.5 0 00-7.5-7.5zM248.5 164.331h-25.08V99.17h25.08v65.161zm40.081 0H263.5V99.17h25.081v65.161zm159.806 48.097H336.161a7.5 7.5 0 00-7.5 7.5v80.161a7.5 7.5 0 007.5 7.5h112.226a7.5 7.5 0 007.5-7.5v-80.161a7.5 7.5 0 00-7.5-7.5zm-63.613 80.161h-41.113v-65.161h41.113v65.161zm56.114 0h-41.113v-65.161h41.113v65.161zm-265.049-80.161H63.613a7.5 7.5 0 00-7.5 7.5v80.161a7.5 7.5 0 007.5 7.5h112.226a7.5 7.5 0 007.5-7.5v-80.161a7.5 7.5 0 00-7.5-7.5zm-63.613 80.161H71.113v-65.161h41.113v65.161zm56.113 0h-41.113v-65.161h41.113v65.161z"/><path d="M510.029 166.763L423.823 72.72V43.057h.516a7.5 7.5 0 000-15h-48.097a7.5 7.5 0 000 15h.517v25.081h-33.097v-8.533a7.499 7.499 0 00-4.146-6.708l-80.161-40.081a7.498 7.498 0 00-6.708 0l-80.161 40.081a7.5 7.5 0 00-4.146 6.708v8.533h-33.097V43.057h.517a7.5 7.5 0 000-15H87.661a7.5 7.5 0 000 15h.516V72.72L1.972 166.763A7.499 7.499 0 007.5 179.331h8.532v265.046a7.5 7.5 0 0015 0V179.331h144.807a7.5 7.5 0 007.5-7.5V64.241L256 27.91l72.661 36.331v107.59a7.5 7.5 0 007.5 7.5h144.807v8.531a7.5 7.5 0 0015 0v-8.531h8.532a7.5 7.5 0 005.529-12.568zM103.178 43.057h17.064v25.081h-17.064V43.057zm65.161 121.274H24.55l74.427-81.193h69.362v81.193zm223.42-121.274h17.064v25.081h-17.064V43.057zM343.66 164.331V83.138h69.363l74.427 81.193H343.66z"/></svg>